<svg width="599" height="126" viewBox="0 0 599 126" fill="none" xmlns="http://www.w3.org/2000/svg">
<path d="M64.3006 64.6069H64.1076L64.0986 64.3569V64.0029L64.4326 64.1129L125.238 85.6919L125.155 85.9269C124.409 88.0459 123.537 90.1469 122.563 92.1719L122.455 92.3969L64.3006 64.6069Z" fill="#01E56F"/>
<path d="M3.44238 42.9951L3.52538 42.7591C4.27438 40.6411 5.14638 38.5421 6.11738 36.5231L6.22538 36.2991L64.4134 64.1051L64.2224 64.5661L3.44238 42.9951Z" fill="#01E56F"/>
<path d="M64.3027 64.5942L64.3687 64.0992L128.672 69.2052L128.653 69.4532C128.487 71.6652 128.19 73.9192 127.772 76.1522L127.726 76.3972L64.3027 64.5942Z" fill="#01E56F"/>
<path d="M0.00878906 59.4824L0.0277891 59.2344C0.193789 57.0214 0.489789 54.7674 0.908789 52.5354L0.954789 52.2904L64.3688 64.0934L64.3028 64.5884L0.00878906 59.4824Z" fill="#01E56F"/>
<path d="M64.3115 64.0932L127.743 52.3842L127.789 52.6292C128.197 54.8062 128.491 57.0602 128.662 59.3272L128.681 59.5762L64.3765 64.5882L64.3115 64.0932Z" fill="#01E56F"/>
<path d="M0.882 76.0571C0.478 73.8571 0.188 71.6041 0.018 69.3601L0 69.1121L64.295 64.0991L64.36 64.5941L0.927 76.3031L0.882 76.0571Z" fill="#01E56F"/>
<path d="M6.0752 92.0786C5.1372 90.1386 4.2682 88.0396 3.4912 85.8426L3.4082 85.6066L64.2312 64.1126L64.4222 64.5736L6.1832 92.3036L6.0752 92.0786Z" fill="#01E56F"/>
<path d="M64.1074 64.1723L122.498 36.3833L122.605 36.6093C123.589 38.6733 124.456 40.7723 125.18 42.8453L125.263 43.0813L64.1074 64.6933V64.1723Z" fill="#01E56F"/>
<path d="M64.1953 64.1401L113.274 22.2891L113.436 22.4791C114.893 24.1831 116.274 25.9881 117.542 27.8431L117.683 28.0491L64.4993 64.5361L64.1953 64.1401Z" fill="#01E56F"/>
<path d="M64.1514 64.1889L100.726 11.0469L100.932 11.1889C102.777 12.4649 104.579 13.8519 106.286 15.3119L106.476 15.4739L64.5474 64.4929L64.1514 64.1889Z" fill="#01E56F"/>
<path d="M64.1045 64.2553L85.6935 3.44232L85.9285 3.52532C88.0825 4.28632 90.1805 5.15832 92.1655 6.11732L92.3895 6.22532L64.5655 64.4463L64.1045 64.2553Z" fill="#01E56F"/>
<path d="M64.0908 64.3198L69.1968 0.00779724L69.4448 0.0267944C71.6578 0.192794 73.9118 0.488799 76.1438 0.907799L76.3888 0.953796L64.5858 64.3848L64.0908 64.3198Z" fill="#01E56F"/>
<path d="M52.376 0.937004L52.621 0.891003C54.811 0.482003 57.067 0.188005 59.329 0.0180054L59.577 7.62939e-06L64.589 64.32L64.094 64.384L52.376 0.937004Z" fill="#01E56F"/>
<path d="M36.376 6.18163L36.602 6.07463C38.648 5.09863 40.749 4.22862 42.846 3.49062L43.081 3.40763L64.576 64.2566L64.114 64.4466L36.376 6.18163Z" fill="#01E56F"/>
<path d="M22.2822 15.4145L22.4702 15.2525C24.1582 13.8015 25.9632 12.4165 27.8352 11.1375L28.0412 10.9965L64.5212 64.1815L64.1242 64.4845L22.2822 15.4145Z" fill="#01E56F"/>
<path d="M31.7178 120.018C30.4148 119.267 29.1218 118.447 27.7628 117.511C25.8148 116.153 24.0138 114.761 22.4098 113.374C19.7828 111.122 17.3768 108.706 15.2578 106.198C13.7498 104.453 12.3658 102.651 11.1468 100.844L11.0078 100.639L65.0608 63.552L31.9328 120.142L31.7178 120.018Z" fill="#01E56F"/>
<path d="M63.8799 64.1166H64.3939L64.5059 64.1606L117.625 100.713L117.486 100.918C116.247 102.753 114.906 104.513 113.386 106.296C111.189 108.843 108.771 111.241 106.196 113.425C104.602 114.812 102.801 116.204 100.845 117.559C99.5109 118.474 98.2249 119.286 96.9139 120.043L96.6989 120.167L63.8799 64.1166Z" fill="#01E56F"/>
<path d="M11.0469 27.9623L11.1899 27.7563C12.4989 25.8623 13.8829 24.0643 15.3039 22.4103L15.4669 22.2213L64.4769 64.1323L64.1729 64.5283L11.0469 27.9623Z" fill="#01E56F"/>
<path d="M64.3163 64.3665L64.2803 64.3905L64.3043 64.3545L64.3163 64.3665Z" fill="#39FF9D"/>
<path d="M71.1919 64.3224C71.1919 68.1254 68.1089 71.2094 64.3049 71.2094C60.5019 71.2094 57.4189 68.1254 57.4189 64.3224C57.4189 60.5194 60.5019 57.4354 64.3049 57.4354C68.1089 57.4354 71.1919 60.5194 71.1919 64.3224Z" fill="#0BAF55"/>
<path d="M68.4543 64.3224C68.4543 66.6144 66.5963 68.4714 64.3053 68.4714C62.0133 68.4714 60.1562 66.6144 60.1562 64.3224C60.1562 62.0304 62.0133 60.1734 64.3053 60.1734C66.5963 60.1734 68.4543 62.0304 68.4543 64.3224Z" fill="#01E56F"/>
<path d="M60.874 105.499H67.813V125.637H60.874V105.499Z" fill="#651EFE"/>
<path d="M42.7336 120.257C42.3246 120.257 41.9416 120.05 41.7086 119.701C41.4786 119.357 41.4386 118.937 41.5986 118.549L63.9906 64.4533C64.0436 64.3253 64.1676 64.2433 64.3056 64.2433C64.4436 64.2433 64.5676 64.3253 64.6206 64.4533L87.0106 118.544C87.1716 118.933 87.1306 119.353 86.9006 119.697C86.6676 120.045 86.2846 120.253 85.8756 120.253C85.6986 120.253 85.5246 120.214 85.3576 120.138L64.3506 110.52L43.2496 120.143C43.0836 120.219 42.9096 120.257 42.7336 120.257Z" fill="#651EFE"/>
<path d="M154.266 70.6127C153.657 70.6127 153.132 70.3957 152.705 69.9687C152.279 69.5437 152.062 69.0187 152.062 68.4097V15.4137C152.062 14.7507 152.278 14.1977 152.705 13.7717C153.134 13.3437 153.659 13.1277 154.266 13.1277H190.084C190.745 13.1277 191.297 13.3437 191.726 13.7707C192.153 14.1997 192.37 14.7517 192.37 15.4137V20.7857C192.37 21.3937 192.154 21.9187 191.727 22.3467C191.299 22.7747 190.746 22.9907 190.084 22.9907H163.552V36.8987H188.294C188.953 36.8987 189.503 37.0997 189.929 37.4957C190.36 37.8957 190.579 38.4367 190.579 39.1037V44.1497C190.579 44.8167 190.36 45.3567 189.929 45.7577C189.504 46.1527 188.954 46.3527 188.294 46.3527H163.552V60.7517H190.735C191.398 60.7517 191.951 60.9667 192.377 61.3927C192.805 61.8227 193.021 62.3757 193.021 63.0357V68.4097C193.021 69.0177 192.805 69.5427 192.378 69.9687C191.951 70.3957 191.398 70.6127 190.735 70.6127H154.266Z" fill="#651EFE"/>
<path d="M220.367 36.1772C218.154 36.1772 216.383 36.6672 215.104 37.6342C213.819 38.6042 212.875 39.8942 212.298 41.4682C211.712 43.0662 211.361 44.8492 211.255 46.7672C211.201 48.3782 211.201 50.0162 211.256 51.6302C211.361 53.5422 211.712 55.3262 212.298 56.9262C212.876 58.5022 213.82 59.7922 215.104 60.7602C216.382 61.7262 218.152 62.2152 220.367 62.2152C222.582 62.2152 224.366 61.7122 225.67 60.7202C226.984 59.7222 227.97 58.4292 228.602 56.8772C229.239 55.3112 229.589 53.6832 229.641 52.0392C229.696 51.0462 229.723 49.9962 229.723 48.9122C229.723 47.8262 229.696 46.7762 229.642 45.7912C229.589 44.2012 229.214 42.6602 228.526 41.2042C227.841 39.7562 226.826 38.5422 225.513 37.5952C224.204 36.6552 222.473 36.1772 220.367 36.1772ZM217.355 71.4272C214.512 71.4272 211.972 70.9412 209.805 69.9812C207.633 69.0192 205.808 67.6392 204.38 65.8792C202.957 64.1292 201.847 62.0352 201.081 59.6542C200.317 57.2842 199.874 54.6462 199.765 51.8122C199.712 50.8512 199.684 49.9562 199.684 49.1562C199.684 48.3572 199.712 47.4622 199.766 46.4972C199.874 43.7822 200.303 41.2132 201.038 38.8652C201.778 36.5102 202.889 34.4142 204.34 32.6362C205.796 30.8502 207.634 29.4432 209.803 28.4552C211.97 27.4682 214.512 26.9672 217.355 26.9672C220.31 26.9672 222.853 27.4822 224.914 28.4982C226.758 29.4102 228.346 30.5662 229.641 31.9402V14.5182C229.641 13.9142 229.842 13.3912 230.237 12.9642C230.638 12.5322 231.18 12.3152 231.846 12.3152H238.765C239.372 12.3152 239.897 12.5312 240.325 12.9562C240.753 13.3872 240.969 13.9122 240.969 14.5182V68.4092C240.969 69.0182 240.752 69.5422 240.326 69.9692C239.898 70.3962 239.373 70.6132 238.765 70.6132H232.334C231.667 70.6132 231.126 70.3942 230.726 69.9622C230.33 69.5382 230.13 69.0162 230.13 68.4092V66.0792C228.828 67.5492 227.216 68.7882 225.326 69.7692C223.209 70.8692 220.527 71.4272 217.355 71.4272Z" fill="#651EFE"/>
<path d="M267.257 71.4272C263.915 71.4272 260.981 70.6612 258.537 69.1512C256.091 67.6392 254.183 65.4672 252.866 62.6952C251.553 59.9342 250.888 56.6252 250.888 52.8602V29.9852C250.888 29.3772 251.104 28.8522 251.531 28.4252C251.958 27.9982 252.483 27.7812 253.092 27.7812H260.256C260.921 27.7812 261.462 28.0002 261.864 28.4312C262.259 28.8592 262.46 29.3812 262.46 29.9852V52.3722C262.46 58.9952 265.28 62.2152 271.083 62.2152C273.818 62.2152 276.016 61.3392 277.615 59.6102C279.218 57.8752 280.031 55.4402 280.031 52.3722V29.9852C280.031 29.3762 280.248 28.8522 280.674 28.4252C281.101 27.9982 281.626 27.7812 282.236 27.7812H289.399C290.007 27.7812 290.532 27.9982 290.959 28.4252C291.386 28.8532 291.603 29.3772 291.603 29.9852V68.4092C291.603 69.0182 291.386 69.5422 290.959 69.9692C290.532 70.3962 290.007 70.6132 289.399 70.6132H282.805C282.139 70.6132 281.598 70.3942 281.197 69.9622C280.802 69.5392 280.601 69.0162 280.601 68.4092V65.7802C279.199 67.4412 277.489 68.7812 275.509 69.7712C273.312 70.8692 270.535 71.4272 267.257 71.4272Z" fill="#651EFE"/>
<path d="M324.892 60.7514C327.88 60.7514 330.337 60.3204 332.197 59.4704C334.03 58.6324 335.399 57.2624 336.266 55.3994C337.141 53.5174 337.613 50.9904 337.666 47.8894C337.72 46.2594 337.761 44.8354 337.788 43.6154C337.815 42.4034 337.815 41.1744 337.788 39.9624C337.761 38.7424 337.72 37.3474 337.666 35.7734C337.559 31.4074 336.461 28.1504 334.403 26.0914C332.344 24.0344 329.007 22.9904 324.485 22.9904H314.641V60.7514H324.892ZM305.029 70.6124C304.419 70.6124 303.894 70.3964 303.468 69.9694C303.041 69.5434 302.825 69.0194 302.825 68.4094V15.4144C302.825 14.7514 303.041 14.1984 303.468 13.7714C303.896 13.3444 304.42 13.1274 305.029 13.1274H324.892C330.381 13.1274 334.977 13.9844 338.552 15.6754C342.138 17.3744 344.887 19.9294 346.724 23.2714C348.554 26.6034 349.509 30.7234 349.564 35.5184C349.671 37.9054 349.726 40.0464 349.726 41.8714C349.726 43.6974 349.671 45.8104 349.564 48.1504C349.454 53.2084 348.513 57.4504 346.766 60.7514C345.011 64.0694 342.329 66.5714 338.793 68.1884C335.278 69.7974 330.737 70.6124 325.298 70.6124H305.029Z" fill="#651EFE"/>
<path d="M386.347 45.2827C386.346 43.2197 385.997 41.3937 385.311 39.8567C384.625 38.3317 383.614 37.1067 382.305 36.2167C380.993 35.3257 379.397 34.8747 377.561 34.8747C375.724 34.8747 374.127 35.3257 372.817 36.2167C371.506 37.1077 370.51 38.3307 369.854 39.8537C369.193 41.3867 368.858 43.2137 368.857 45.2827H386.347ZM377.561 71.4277C371.496 71.4277 366.618 69.6497 363.058 66.1447C359.5 62.6417 357.558 57.6007 357.285 51.1617C357.232 50.6277 357.204 49.9397 357.204 49.0747C357.204 48.2107 357.232 47.5497 357.287 47.0517C357.502 42.9797 358.457 39.3837 360.124 36.3767C361.795 33.3637 364.144 31.0157 367.103 29.3987C370.058 27.7847 373.576 26.9677 377.561 26.9677C381.984 26.9677 385.752 27.8967 388.762 29.7307C391.779 31.5687 394.083 34.1527 395.615 37.4087C397.143 40.6577 397.918 44.4597 397.918 48.7087V50.4177C397.918 51.0237 397.702 51.5487 397.278 51.9777C396.849 52.4067 396.295 52.6227 395.632 52.6227H368.857V53.0237C368.91 54.8787 369.272 56.6147 369.936 58.1757C370.594 59.7287 371.58 60.9947 372.866 61.9387C374.143 62.8787 375.695 63.3557 377.479 63.3557C378.959 63.3557 380.212 63.1297 381.202 62.6847C382.202 62.2397 383.03 61.7207 383.661 61.1427C384.291 60.5657 384.744 60.0857 385.009 59.7157C385.532 59.0187 385.95 58.6077 386.292 58.4537C386.627 58.3007 387.1 58.2267 387.737 58.2267H394.737C395.341 58.2267 395.851 58.4137 396.25 58.7817C396.661 59.1627 396.837 59.6437 396.777 60.2137C396.721 61.1207 396.269 62.1997 395.393 63.5007C394.538 64.7687 393.301 66.0207 391.715 67.2237C390.121 68.4307 388.112 69.4437 385.741 70.2327C383.362 71.0247 380.61 71.4277 377.561 71.4277Z" fill="#651EFE"/>
<path d="M437.639 70.6127C437.029 70.6127 436.504 70.3957 436.079 69.9687C435.653 69.5457 435.436 69.0207 435.436 68.4097V46.0217C435.436 42.9507 434.676 40.5137 433.176 38.7777C431.687 37.0517 429.491 36.1767 426.649 36.1767C423.91 36.1767 421.699 37.0547 420.076 38.7847C418.445 40.5197 417.618 42.9537 417.618 46.0217V68.4097C417.618 69.0187 417.402 69.5437 416.975 69.9687C416.548 70.3957 416.023 70.6127 415.415 70.6127H408.252C407.643 70.6127 407.118 70.3957 406.691 69.9687C406.264 69.5447 406.047 69.0197 406.047 68.4097V29.9847C406.047 29.3757 406.264 28.8507 406.691 28.4247C407.118 27.9977 407.643 27.7817 408.252 27.7817H414.926C415.535 27.7817 416.061 27.9977 416.488 28.4247C416.914 28.8547 417.131 29.3797 417.131 29.9847V32.6427C418.486 31.1167 420.18 29.8077 422.177 28.7467C424.402 27.5657 427.194 26.9667 430.476 26.9667C433.817 26.9667 436.763 27.7327 439.235 29.2427C441.706 30.7547 443.642 32.9117 444.987 35.6547C446.327 38.3927 447.007 41.7157 447.007 45.5327V68.4097C447.007 69.0167 446.79 69.5427 446.364 69.9687C445.937 70.3957 445.411 70.6127 444.802 70.6127H437.639Z" fill="#651EFE"/>
<path d="M484.117 45.2827C484.116 43.2167 483.767 41.3907 483.079 39.8567C482.396 38.3327 481.386 37.1077 480.074 36.2167C478.764 35.3257 477.169 34.8747 475.332 34.8747C473.492 34.8747 471.895 35.3257 470.588 36.2167C469.278 37.1057 468.28 38.3297 467.623 39.8537C466.963 41.3837 466.628 43.2097 466.627 45.2827H484.117ZM475.332 71.4277C469.267 71.4277 464.388 69.6497 460.827 66.1447C457.27 62.6427 455.329 57.6017 455.055 51.1617C455.001 50.6217 454.972 49.9147 454.972 49.0747C454.972 48.2347 455.001 47.5537 455.057 47.0517C455.271 42.9797 456.226 39.3827 457.894 36.3767C459.565 33.3637 461.913 31.0157 464.872 29.3987C467.829 27.7847 471.348 26.9677 475.332 26.9677C479.754 26.9677 483.521 27.8967 486.531 29.7307C489.547 31.5687 491.852 34.1517 493.385 37.4087C494.913 40.6597 495.688 44.4617 495.688 48.7087V50.4177C495.688 51.0257 495.471 51.5507 495.045 51.9787C494.618 52.4067 494.065 52.6227 493.402 52.6227H466.627V53.0237C466.679 54.8737 467.041 56.6097 467.706 58.1757C468.363 59.7287 469.348 60.9947 470.635 61.9387C471.914 62.8787 473.467 63.3557 475.249 63.3557C476.727 63.3557 477.98 63.1297 478.973 62.6847C479.972 62.2397 480.8 61.7207 481.43 61.1427C482.066 60.5597 482.52 60.0797 482.778 59.7167C483.302 59.0197 483.721 58.6077 484.06 58.4537C484.395 58.3017 484.869 58.2267 485.508 58.2267H492.507C493.111 58.2267 493.62 58.4137 494.019 58.7817C494.431 59.1627 494.608 59.6437 494.548 60.2137C494.49 61.1237 494.037 62.2027 493.162 63.5007C492.311 64.7647 491.074 66.0177 489.484 67.2237C487.89 68.4317 485.881 69.4447 483.51 70.2327C481.13 71.0247 478.379 71.4277 475.332 71.4277Z" fill="#651EFE"/>
<path d="M502.388 70.6127C502.028 70.6127 501.717 70.4847 501.464 70.2317C501.211 69.9797 501.082 69.6687 501.082 69.3057V64.9507C501.082 64.5587 501.211 64.2337 501.465 63.9817C501.717 63.7297 502.028 63.6017 502.388 63.6017H506.788C507.149 63.6017 507.459 63.7297 507.712 63.9827C507.965 64.2347 508.094 64.5607 508.094 64.9507V69.3057C508.094 69.6677 507.965 69.9787 507.712 70.2317C507.459 70.4847 507.149 70.6127 506.788 70.6127H502.388Z" fill="#01E56F"/>
<path d="M522.979 71.0522C520.837 71.0522 518.927 70.6442 517.302 69.8372C515.667 69.0302 514.375 67.8352 513.459 66.2872C512.546 64.7482 512.039 62.8662 511.951 60.6942C511.92 60.2562 511.906 59.6712 511.906 58.9462C511.906 58.2202 511.92 57.6222 511.952 57.1482C512.04 54.9812 512.546 53.0982 513.459 51.5592C514.375 50.0112 515.668 48.8172 517.302 48.0092C518.929 47.2032 520.839 46.7952 522.979 46.7952C524.879 46.7952 526.525 47.0682 527.868 47.6062C529.212 48.1432 530.333 48.8262 531.201 49.6352C532.066 50.4422 532.728 51.3022 533.168 52.1922C533.607 53.0862 533.844 53.9112 533.876 54.6452C533.91 55.0422 533.785 55.3712 533.504 55.6152C533.238 55.8452 532.923 55.9622 532.57 55.9622H528.699C528.34 55.9622 528.053 55.8652 527.847 55.6762C527.664 55.5102 527.494 55.2702 527.33 54.9462C526.9 53.8012 526.347 53.0052 525.677 52.5532C525.002 52.1002 524.125 51.8702 523.067 51.8702C521.66 51.8702 520.575 52.2982 519.751 53.1772C518.933 54.0512 518.49 55.4682 518.434 57.3912C518.375 58.4972 518.375 59.5242 518.433 60.4482C518.49 62.4092 518.932 63.8332 519.75 64.6902C520.573 65.5552 521.659 65.9762 523.067 65.9762C524.154 65.9762 525.039 65.7462 525.697 65.2952C526.355 64.8422 526.901 64.0452 527.319 62.9272C527.495 62.5762 527.665 62.3362 527.848 62.1702C528.056 61.9812 528.342 61.8852 528.699 61.8852H532.57C532.92 61.8852 533.235 62.0012 533.503 62.2312C533.786 62.4772 533.91 62.8072 533.875 63.2122C533.845 63.7522 533.699 64.3772 533.442 65.0622C533.185 65.7402 532.773 66.4432 532.216 67.1512C531.66 67.8592 530.953 68.5122 530.117 69.0932C529.277 69.6792 528.253 70.1562 527.077 70.5142C525.899 70.8712 524.52 71.0522 522.979 71.0522Z" fill="#01E56F"/>
<path d="M548.319 51.6508C546.848 51.6508 545.698 52.1248 544.902 53.0578C544.091 54.0078 543.638 55.4078 543.553 57.2188C543.524 57.6608 543.508 58.2268 543.508 58.9238C543.508 59.6218 543.524 60.1878 543.552 60.6228C543.638 62.4688 544.091 63.8758 544.901 64.8098C545.708 65.7428 546.826 66.1958 548.319 66.1958C549.79 66.1958 550.94 65.7298 551.738 64.8098C552.548 63.8728 553.001 62.4648 553.084 60.6288C553.112 60.1888 553.127 59.6218 553.127 58.9238C553.127 58.2268 553.112 57.6598 553.085 57.2238C553 55.4108 552.547 54.0108 551.736 53.0578C550.938 52.1248 549.788 51.6508 548.319 51.6508ZM548.319 71.0518C545.946 71.0518 543.917 70.6288 542.287 69.7938C540.651 68.9538 539.388 67.7498 538.531 66.2158C537.679 64.6928 537.188 62.8958 537.07 60.8738C537.041 60.3418 537.025 59.6928 537.025 58.9238C537.025 58.1548 537.041 57.5058 537.07 56.9738C537.188 54.9208 537.695 53.1148 538.578 51.6058C539.463 50.0888 540.74 48.8948 542.375 48.0558C544.002 47.2188 546.002 46.7948 548.319 46.7948C550.634 46.7948 552.633 47.2188 554.261 48.0558C555.894 48.8938 557.172 50.0878 558.059 51.6058C558.941 53.1148 559.448 54.9208 559.567 56.9728C559.595 57.5068 559.61 58.1548 559.61 58.9238C559.61 59.6928 559.595 60.3418 559.567 60.8728C559.448 62.8958 558.956 64.6938 558.104 66.2158C557.25 67.7488 555.987 68.9518 554.35 69.7938C552.719 70.6288 550.69 71.0518 548.319 71.0518Z" fill="#01E56F"/>
<path d="M593.677 70.6127C593.315 70.6127 593.003 70.4847 592.752 70.2317C592.499 69.9787 592.371 69.6677 592.371 69.3057V57.0317C592.371 55.7587 592.188 54.7377 591.824 53.9957C591.47 53.2737 590.99 52.7567 590.398 52.4607C589.789 52.1567 589.101 52.0027 588.353 52.0027C587.75 52.0027 587.137 52.1567 586.53 52.4607C585.936 52.7567 585.439 53.2757 585.054 54.0027C584.664 54.7407 584.467 55.7597 584.467 57.0317V69.3057C584.467 69.6677 584.339 69.9787 584.086 70.2317C583.833 70.4847 583.523 70.6127 583.162 70.6127H579.554C579.162 70.6127 578.842 70.4827 578.601 70.2257C578.365 69.9707 578.247 69.6627 578.247 69.3057V57.0317C578.247 55.7587 578.05 54.7397 577.662 54.0027C577.278 53.2767 576.781 52.7577 576.187 52.4607C575.579 52.1567 574.921 52.0027 574.231 52.0027C573.6 52.0027 572.973 52.1637 572.367 52.4797C571.771 52.7907 571.273 53.3117 570.887 54.0277C570.499 54.7487 570.302 55.7597 570.302 57.0317V69.3057C570.302 69.6677 570.173 69.9787 569.92 70.2317C569.667 70.4847 569.357 70.6127 568.996 70.6127H565.3C564.94 70.6127 564.629 70.4847 564.376 70.2317C564.122 69.9807 563.993 69.6687 563.993 69.3057V48.5407C563.993 48.1787 564.122 47.8677 564.377 47.6157C564.628 47.3637 564.94 47.2367 565.3 47.2367H568.732C569.092 47.2367 569.404 47.3637 569.656 47.6167C569.908 47.8697 570.037 48.1807 570.037 48.5407V49.3487C570.612 48.7287 571.321 48.1847 572.153 47.7277C573.224 47.1397 574.514 46.8257 575.987 46.7947L576.202 46.7927C579.355 46.7927 581.64 48.0257 583.002 50.4567C583.684 49.4217 584.619 48.5647 585.789 47.9057C587.098 47.1687 588.568 46.7947 590.157 46.7947C591.718 46.7947 593.158 47.1607 594.438 47.8827C595.72 48.6077 596.744 49.7157 597.484 51.1767C598.218 52.6317 598.59 54.4827 598.59 56.6797V69.3057C598.59 69.6677 598.461 69.9787 598.208 70.2317C597.955 70.4847 597.645 70.6127 597.284 70.6127H593.677Z" fill="#01E56F"/>
<path d="M152.874 111.579C152.653 111.579 152.454 111.497 152.298 111.342C152.144 111.186 152.062 110.988 152.062 110.767V95.4835C152.062 95.2625 152.144 95.0625 152.298 94.9075C152.456 94.7515 152.655 94.6695 152.874 94.6695H155.055C155.273 94.6695 155.472 94.7515 155.628 94.9065C155.785 95.0625 155.867 95.2625 155.867 95.4835V108.289H163.048C163.288 108.289 163.49 108.369 163.647 108.528C163.804 108.685 163.884 108.887 163.884 109.127V110.767C163.884 110.987 163.802 111.186 163.646 111.342C163.489 111.499 163.287 111.579 163.048 111.579H152.874Z" fill="#01E56F"/>
<path d="M172.096 111.579C171.875 111.579 171.676 111.497 171.52 111.342C171.366 111.186 171.284 110.988 171.284 110.767V95.5075C171.284 95.2665 171.363 95.0645 171.52 94.9075C171.678 94.7515 171.877 94.6695 172.096 94.6695H182.41C182.645 94.6695 182.851 94.7515 183.008 94.9065C183.166 95.0645 183.246 95.2675 183.246 95.5075V97.0545C183.246 97.2745 183.164 97.4745 183.009 97.6295C182.854 97.7845 182.647 97.8665 182.41 97.8665H174.948V101.515H181.894C182.13 101.515 182.329 101.589 182.486 101.734C182.646 101.881 182.731 102.086 182.731 102.327V103.78C182.731 104.022 182.646 104.228 182.485 104.376C182.329 104.52 182.13 104.595 181.894 104.595H174.948V108.384H182.597C182.838 108.384 183.039 108.464 183.197 108.621C183.352 108.776 183.434 108.983 183.434 109.22V110.767C183.434 110.988 183.352 111.186 183.197 111.342C183.039 111.499 182.838 111.579 182.597 111.579H172.096Z" fill="#01E56F"/>
<path d="M200.337 105.079L198.024 98.8096L195.732 105.079H200.337ZM203.297 111.58C203.009 111.58 202.788 111.504 202.639 111.353C202.51 111.225 202.425 111.097 202.38 110.963L201.345 108.274H194.725L193.685 110.974C193.646 111.095 193.561 111.223 193.43 111.354C193.281 111.504 193.06 111.58 192.772 111.58H190.733C190.542 111.58 190.37 111.511 190.222 111.373C190.071 111.234 189.991 111.049 189.991 110.838C189.991 110.741 190.013 110.639 190.056 110.533L195.702 95.4196C195.756 95.2356 195.872 95.0586 196.04 94.9086C196.224 94.7496 196.464 94.6696 196.757 94.6696H199.313C199.608 94.6696 199.846 94.7506 200.021 94.9106C200.174 95.0566 200.29 95.2246 200.365 95.4156L206.017 110.539C206.046 110.674 206.056 110.762 206.056 110.838C206.056 111.046 205.982 111.228 205.841 111.367C205.704 111.506 205.529 111.58 205.337 111.58H203.297Z" fill="#01E56F"/>
<path d="M220.175 102.242C221.06 102.242 221.721 102.048 222.139 101.664C222.558 101.28 222.761 100.746 222.761 100.031C222.761 99.3236 222.554 98.7646 222.146 98.3706C221.736 97.9726 221.072 97.7716 220.175 97.7716H217.119V102.242H220.175ZM224.09 111.58C223.755 111.58 223.49 111.484 223.303 111.297C223.146 111.139 223.022 110.978 222.933 110.818L219.979 105.391H217.119V110.768C217.119 110.988 217.046 111.179 216.901 111.336C216.752 111.496 216.547 111.58 216.307 111.58H214.174C213.95 111.58 213.756 111.5 213.598 111.343C213.443 111.188 213.362 110.989 213.362 110.768V95.5076C213.362 95.2656 213.441 95.0646 213.598 94.9076C213.756 94.7516 213.955 94.6696 214.174 94.6696H220.245C222.185 94.6696 223.744 95.1306 224.879 96.0386C226.029 96.9596 226.613 98.3096 226.613 100.054C226.613 101.261 226.309 102.281 225.709 103.088C225.166 103.814 224.452 104.366 223.584 104.73L226.862 110.457C226.932 110.596 226.965 110.721 226.965 110.838C226.965 111.049 226.884 111.234 226.732 111.374C226.585 111.511 226.413 111.58 226.223 111.58H224.09Z" fill="#01E56F"/>
<path d="M245.54 111.579C245.246 111.579 245.024 111.494 244.881 111.328C244.769 111.196 244.723 111.163 244.718 111.159L238.383 101.521V110.767C238.383 110.988 238.301 111.186 238.145 111.342C237.99 111.497 237.783 111.579 237.546 111.579H235.578C235.356 111.579 235.157 111.497 235.002 111.342C234.847 111.186 234.765 110.988 234.765 110.767V95.5075C234.765 95.2665 234.845 95.0645 235.002 94.9075C235.16 94.7515 235.358 94.6695 235.578 94.6695H237.382C237.667 94.6695 237.889 94.7455 238.04 94.8955C238.159 95.0165 238.234 95.1025 238.271 95.1585L244.563 104.946V95.5075C244.563 95.2695 244.638 95.0705 244.784 94.9135C244.933 94.7545 245.138 94.6695 245.376 94.6695H247.346C247.579 94.6695 247.786 94.7515 247.943 94.9065C248.102 95.0645 248.181 95.2675 248.181 95.5075V110.744C248.181 110.979 248.099 111.186 247.944 111.342C247.786 111.499 247.592 111.579 247.369 111.579H245.54Z" fill="#01E56F"/>
<path d="M276.195 105.079L273.882 98.8086L271.59 105.079H276.195ZM279.155 111.58C278.867 111.58 278.646 111.504 278.497 111.353C278.368 111.224 278.283 111.096 278.238 110.963L277.202 108.274H270.583L269.543 110.974C269.504 111.095 269.419 111.223 269.288 111.354C269.139 111.504 268.917 111.58 268.63 111.58H266.591C266.4 111.58 266.228 111.511 266.08 111.373C265.929 111.233 265.848 111.049 265.848 110.838C265.848 110.743 265.87 110.641 265.913 110.534L271.56 95.4196C271.614 95.2356 271.73 95.0576 271.898 94.9086C272.082 94.7496 272.322 94.6696 272.615 94.6696H275.17C275.466 94.6696 275.704 94.7506 275.879 94.9116C276.032 95.0566 276.147 95.2246 276.223 95.4156L281.875 110.539C281.904 110.674 281.913 110.762 281.913 110.838C281.913 111.046 281.839 111.228 281.699 111.367C281.562 111.506 281.387 111.58 281.195 111.58H279.155Z" fill="#01E56F"/>
<path d="M299.995 111.579C299.701 111.579 299.479 111.494 299.336 111.328C299.224 111.196 299.178 111.163 299.173 111.159L292.838 101.521V110.767C292.838 110.988 292.756 111.186 292.6 111.342C292.445 111.497 292.238 111.579 292.001 111.579H290.033C289.811 111.579 289.612 111.497 289.457 111.342C289.302 111.186 289.22 110.988 289.22 110.767V95.5075C289.22 95.2665 289.3 95.0645 289.457 94.9075C289.615 94.7515 289.813 94.6695 290.033 94.6695H291.837C292.122 94.6695 292.344 94.7455 292.495 94.8955C292.614 95.0165 292.689 95.1025 292.726 95.1585L299.018 104.946V95.5075C299.018 95.2695 299.093 95.0705 299.239 94.9135C299.388 94.7545 299.593 94.6695 299.831 94.6695H301.8C302.035 94.6695 302.242 94.7515 302.398 94.9065C302.556 95.0645 302.636 95.2675 302.636 95.5075V110.744C302.636 110.979 302.554 111.186 302.399 111.342C302.244 111.497 302.044 111.579 301.824 111.579H299.995Z" fill="#01E56F"/>
<path d="M316.546 111.579C316.325 111.579 316.126 111.497 315.971 111.342C315.816 111.187 315.733 110.988 315.733 110.767V105.534L310.234 95.7945C310.208 95.7435 310.187 95.6915 310.166 95.6325C310.143 95.5615 310.13 95.4875 310.13 95.4125C310.13 95.2055 310.202 95.0285 310.344 94.8855C310.487 94.7435 310.661 94.6695 310.849 94.6695H312.936C313.178 94.6695 313.384 94.7345 313.548 94.8645C313.701 94.9885 313.806 95.1195 313.868 95.2675L317.623 101.689L321.369 95.2395C321.447 95.1045 321.555 94.9825 321.696 94.8675C321.865 94.7345 322.071 94.6695 322.313 94.6695H324.375C324.579 94.6695 324.761 94.7435 324.902 94.8835C325.046 95.0275 325.117 95.2055 325.117 95.4125C325.117 95.4755 325.112 95.5385 325.101 95.6005C325.086 95.6905 325.043 95.7775 324.978 95.8455L319.515 105.534V110.767C319.515 110.988 319.433 111.186 319.277 111.342C319.12 111.499 318.919 111.579 318.679 111.579H316.546Z" fill="#01E56F"/>
<path d="M337.033 111.579C336.808 111.579 336.615 111.499 336.458 111.342C336.303 111.187 336.22 110.988 336.22 110.767V98.0545H332.133C331.912 98.0545 331.714 97.9725 331.558 97.8165C331.403 97.6615 331.321 97.4625 331.321 97.2415V95.5075C331.321 95.2675 331.401 95.0645 331.558 94.9075C331.716 94.7515 331.914 94.6695 332.133 94.6695H344.089C344.323 94.6695 344.53 94.7515 344.686 94.9065C344.845 95.0645 344.925 95.2675 344.925 95.5075V97.2415C344.925 97.4625 344.843 97.6615 344.687 97.8165C344.53 97.9745 344.329 98.0545 344.089 98.0545H340.026V110.767C340.026 110.987 339.944 111.185 339.788 111.342C339.631 111.499 339.429 111.579 339.189 111.579H337.033Z" fill="#01E56F"/>
<path d="M353.232 111.579C353.007 111.579 352.813 111.499 352.656 111.342C352.502 111.187 352.42 110.988 352.42 110.767V95.4835C352.42 95.2615 352.502 95.0615 352.656 94.9075C352.813 94.7515 353.012 94.6695 353.232 94.6695H355.435C355.673 94.6695 355.878 94.7535 356.028 94.9135C356.171 95.0685 356.248 95.2665 356.248 95.4835V110.767C356.248 110.987 356.173 111.179 356.029 111.335C355.88 111.495 355.675 111.579 355.435 111.579H353.232Z" fill="#01E56F"/>
<path d="M378.103 111.579C377.863 111.579 377.658 111.495 377.509 111.335C377.366 111.179 377.291 110.983 377.291 110.767V101.633L374.481 106.992C374.384 107.165 374.261 107.311 374.112 107.433C373.94 107.571 373.722 107.641 373.462 107.641H372.501C372.222 107.641 371.998 107.57 371.833 107.429C371.695 107.308 371.578 107.163 371.486 106.997L368.672 101.632V110.767C368.672 110.988 368.59 111.186 368.435 111.342C368.278 111.499 368.083 111.579 367.859 111.579H365.89C365.65 111.579 365.449 111.499 365.291 111.342C365.137 111.187 365.055 110.988 365.055 110.767V95.5075C365.055 95.2665 365.134 95.0645 365.291 94.9075C365.449 94.7515 365.656 94.6695 365.89 94.6695H367.743C368.03 94.6695 368.256 94.7545 368.416 94.9235C368.55 95.0695 368.627 95.1705 368.669 95.2545L372.971 103.278L377.321 95.2465C377.36 95.1695 377.439 95.0645 377.568 94.9255C377.73 94.7545 377.957 94.6695 378.244 94.6695H380.074C380.307 94.6695 380.514 94.7515 380.67 94.9065C380.83 95.0655 380.91 95.2675 380.91 95.5075V110.767C380.91 110.987 380.828 111.185 380.671 111.342C380.516 111.497 380.309 111.579 380.074 111.579H378.103Z" fill="#01E56F"/>
<path d="M390.504 111.579C390.283 111.579 390.084 111.497 389.929 111.342C389.774 111.186 389.692 110.988 389.692 110.767V95.5075C389.692 95.2675 389.772 95.0645 389.929 94.9075C390.086 94.7515 390.285 94.6695 390.504 94.6695H400.819C401.053 94.6695 401.26 94.7515 401.416 94.9065C401.575 95.0635 401.655 95.2665 401.655 95.5075V97.0545C401.655 97.2755 401.572 97.4755 401.416 97.6305C401.262 97.7845 401.055 97.8665 400.819 97.8665H393.357V101.515H400.304C400.539 101.515 400.737 101.589 400.895 101.734C401.054 101.881 401.139 102.086 401.139 102.327V103.78C401.139 104.022 401.054 104.228 400.894 104.375C400.737 104.52 400.539 104.595 400.304 104.595H393.357V108.384H401.007C401.242 108.384 401.449 108.466 401.605 108.621C401.761 108.777 401.843 108.984 401.843 109.22V110.767C401.843 110.987 401.761 111.185 401.605 111.342C401.449 111.497 401.242 111.579 401.007 111.579H390.504Z" fill="#01E56F"/>
<path d="M409.728 113.338C409.456 113.338 409.294 113.212 409.207 113.106C409.086 112.962 409.035 112.775 409.059 112.566L409.692 108.571C409.729 108.328 409.822 108.111 409.965 107.929C410.08 107.783 410.297 107.609 410.689 107.609H412.847C413.041 107.609 413.21 107.683 413.335 107.82C413.456 107.955 413.518 108.122 413.518 108.306C413.518 108.455 413.485 108.596 413.419 108.724L411.931 112.592C411.855 112.78 411.746 112.945 411.607 113.088C411.44 113.254 411.21 113.338 410.924 113.338H409.728Z" fill="#01E56F"/>
<path d="M440.945 105.079L438.632 98.8096L436.34 105.079H440.945ZM443.905 111.58C443.618 111.58 443.396 111.504 443.248 111.353C443.117 111.224 443.031 111.095 442.988 110.96L441.952 108.274H435.334L434.294 110.974C434.252 111.098 434.167 111.225 434.038 111.354C433.888 111.504 433.667 111.58 433.38 111.58H431.341C431.149 111.58 430.977 111.51 430.83 111.371C430.68 111.237 430.598 111.051 430.598 110.838C430.598 110.744 430.62 110.641 430.663 110.534L436.31 95.4196C436.365 95.2346 436.48 95.0576 436.646 94.9086C436.831 94.7496 437.072 94.6696 437.366 94.6696H439.921C440.216 94.6696 440.455 94.7506 440.63 94.9116C440.782 95.0576 440.897 95.2246 440.973 95.4136L446.624 110.539C446.654 110.671 446.665 110.76 446.665 110.838C446.665 111.043 446.591 111.225 446.45 111.366C446.312 111.506 446.136 111.58 445.945 111.58H443.905Z" fill="#01E56F"/>
<path d="M464.746 111.579C464.453 111.579 464.231 111.495 464.087 111.329C463.973 111.196 463.931 111.165 463.924 111.16L457.588 101.521V110.767C457.588 110.988 457.506 111.186 457.35 111.342C457.195 111.497 456.988 111.579 456.752 111.579H454.781C454.56 111.579 454.362 111.497 454.207 111.342C454.052 111.186 453.97 110.988 453.97 110.767V95.5075C453.97 95.2675 454.05 95.0645 454.207 94.9075C454.364 94.7515 454.562 94.6695 454.781 94.6695H456.588C456.873 94.6695 457.094 94.7455 457.244 94.8955C457.37 95.0215 457.437 95.0995 457.477 95.1625L463.769 104.947V95.5075C463.769 95.2705 463.843 95.0715 463.986 94.9155C464.142 94.7515 464.342 94.6695 464.582 94.6695H466.551C466.784 94.6695 466.991 94.7515 467.147 94.9065C467.306 95.0645 467.386 95.2675 467.386 95.5075V110.744C467.386 110.979 467.304 111.186 467.148 111.342C466.993 111.497 466.795 111.579 466.574 111.579H464.746Z" fill="#01E56F"/>
<path d="M481.295 111.579C481.071 111.579 480.873 111.496 480.719 111.34C480.566 111.186 480.483 110.988 480.483 110.767V105.534L474.982 95.7945C474.954 95.7375 474.934 95.6865 474.915 95.6275C474.893 95.5615 474.88 95.4875 474.88 95.4125C474.88 95.2035 474.952 95.0255 475.094 94.8845C475.234 94.7435 475.409 94.6695 475.599 94.6695H477.685C477.927 94.6695 478.133 94.7345 478.297 94.8645C478.449 94.9865 478.554 95.1185 478.617 95.2675L482.372 101.69L486.119 95.2395C486.196 95.1045 486.305 94.9815 486.449 94.8655C486.611 94.7355 486.817 94.6695 487.062 94.6695H489.125C489.327 94.6695 489.509 94.7425 489.651 94.8825C489.796 95.0295 489.867 95.2065 489.867 95.4125C489.867 95.4735 489.861 95.5315 489.853 95.5905C489.836 95.6915 489.791 95.7795 489.723 95.8485L484.264 105.534V110.767C484.264 110.988 484.182 111.186 484.026 111.342C483.871 111.497 483.664 111.579 483.429 111.579H481.295Z" fill="#01E56F"/>
<path d="M508.793 111.579C508.494 111.579 508.251 111.493 508.071 111.323C507.909 111.173 507.796 111.004 507.736 110.822L505.348 103.701L502.959 110.823C502.871 111.018 502.76 111.177 502.618 111.318C502.443 111.491 502.194 111.579 501.877 111.579H500.308C500.006 111.579 499.761 111.488 499.58 111.308C499.412 111.141 499.3 110.93 499.243 110.681L496.447 95.6235L496.424 95.4125C496.424 95.1995 496.502 95.0195 496.656 94.8775C496.808 94.7385 496.98 94.6695 497.166 94.6695H499.229C499.927 94.6695 500.095 95.0975 500.132 95.3525L501.893 104.956L503.701 99.0665C503.764 98.8995 503.859 98.7475 503.998 98.5885C504.165 98.3995 504.405 98.3045 504.714 98.3045H505.98C506.308 98.3045 506.555 98.4015 506.714 98.5945C506.849 98.7615 506.933 98.9195 506.973 99.0795L508.802 104.943L510.564 95.3445C510.601 95.0975 510.769 94.6695 511.465 94.6695H513.528C513.717 94.6695 513.891 94.7435 514.032 94.8835C514.176 95.0285 514.248 95.2055 514.248 95.4125C514.248 95.5395 514.237 95.5965 514.213 95.6745L511.431 110.672C511.393 110.922 511.279 111.141 511.098 111.312C510.91 111.489 510.663 111.579 510.363 111.579H508.793Z" fill="#01E56F"/>
<path d="M533.101 111.579C532.877 111.579 532.679 111.496 532.525 111.34C532.371 111.185 532.289 110.987 532.289 110.767V104.733H525.873V110.767C525.873 110.983 525.798 111.179 525.655 111.334C525.504 111.495 525.299 111.579 525.061 111.579H522.926C522.705 111.579 522.513 111.505 522.358 111.359C522.197 111.211 522.114 111.011 522.114 110.767V95.5075C522.114 95.2665 522.194 95.0635 522.353 94.9065C522.509 94.7515 522.707 94.6695 522.926 94.6695H525.061C525.297 94.6695 525.502 94.7535 525.653 94.9125C525.8 95.0725 525.873 95.2715 525.873 95.5075V101.305H532.289V95.5075C532.289 95.2675 532.369 95.0655 532.527 94.9075C532.681 94.7525 532.879 94.6695 533.101 94.6695H535.211C535.445 94.6695 535.652 94.7515 535.808 94.9065C535.966 95.0645 536.046 95.2675 536.046 95.5075V110.767C536.046 110.988 535.964 111.186 535.809 111.342C535.654 111.497 535.447 111.579 535.211 111.579H533.101Z" fill="#01E56F"/>
<path d="M545.641 111.579C545.42 111.579 545.222 111.497 545.067 111.342C544.912 111.186 544.829 110.988 544.829 110.767V95.5075C544.829 95.2675 544.91 95.0645 545.067 94.9075C545.224 94.7515 545.422 94.6695 545.641 94.6695H555.957C556.191 94.6695 556.398 94.7515 556.554 94.9065C556.713 95.0655 556.793 95.2675 556.793 95.5075V97.0545C556.793 97.2745 556.711 97.4735 556.555 97.6295C556.4 97.7845 556.193 97.8665 555.957 97.8665H548.495V101.515H555.442C555.677 101.515 555.875 101.589 556.033 101.734C556.192 101.881 556.277 102.086 556.277 102.327V103.78C556.277 104.022 556.192 104.228 556.032 104.375C555.875 104.52 555.677 104.595 555.442 104.595H548.495V108.384H556.145C556.38 108.384 556.587 108.466 556.743 108.621C556.898 108.776 556.98 108.983 556.98 109.22V110.767C556.98 110.988 556.898 111.186 556.743 111.342C556.587 111.497 556.38 111.579 556.145 111.579H545.641Z" fill="#01E56F"/>
<path d="M571.85 102.242C572.736 102.242 573.397 102.048 573.814 101.664C574.233 101.281 574.437 100.747 574.437 100.031C574.437 99.3236 574.23 98.7646 573.821 98.3706C573.411 97.9726 572.747 97.7716 571.85 97.7716H568.795V102.242H571.85ZM575.765 111.58C575.433 111.58 575.168 111.485 574.98 111.298C574.822 111.138 574.698 110.977 574.609 110.818L571.655 105.391H568.795V110.768C568.795 110.988 568.721 111.18 568.577 111.336C568.424 111.498 568.225 111.58 567.984 111.58H565.849C565.628 111.58 565.429 111.498 565.274 111.343C565.119 111.187 565.037 110.989 565.037 110.768V95.5076C565.037 95.2666 565.117 95.0646 565.274 94.9076C565.431 94.7516 565.63 94.6696 565.849 94.6696H571.921C573.86 94.6696 575.418 95.1306 576.554 96.0386C577.704 96.9596 578.288 98.3096 578.288 100.054C578.288 101.261 577.984 102.281 577.383 103.088C576.841 103.814 576.127 104.366 575.258 104.73L578.537 110.457C578.608 110.595 578.64 110.719 578.64 110.838C578.64 111.049 578.559 111.234 578.407 111.374C578.262 111.51 578.09 111.58 577.898 111.58H575.765Z" fill="#01E56F"/>
<path d="M587.251 111.579C587.03 111.579 586.832 111.497 586.677 111.342C586.522 111.187 586.439 110.988 586.439 110.767V95.5075C586.439 95.2665 586.519 95.0635 586.678 94.9065C586.834 94.7515 587.032 94.6695 587.251 94.6695H597.567C597.801 94.6695 598.008 94.7515 598.164 94.9065C598.322 95.0645 598.402 95.2675 598.402 95.5075V97.0545C598.402 97.2745 598.32 97.4745 598.165 97.6295C598.01 97.7845 597.803 97.8665 597.567 97.8665H590.104V101.515H597.051C597.283 101.515 597.487 101.591 597.643 101.734C597.802 101.881 597.887 102.086 597.887 102.327V103.78C597.887 104.022 597.802 104.228 597.642 104.375C597.487 104.518 597.283 104.595 597.051 104.595H590.104V108.384H597.755C597.99 108.384 598.197 108.466 598.353 108.621C598.508 108.776 598.59 108.983 598.59 109.22V110.767C598.59 110.988 598.508 111.186 598.353 111.342C598.197 111.497 597.99 111.579 597.755 111.579H587.251Z" fill="#01E56F"/>
</svg>
